<?xml version="1.0" standalone="no"?>
<!DOCTYPE svg PUBLIC "-//W3C//DTD SVG 20010904//EN"
 "http://www.w3.org/TR/2001/REC-SVG-20010904/DTD/svg10.dtd">
<svg version="1.0" xmlns="http://www.w3.org/2000/svg"
 width="506.000000pt" height="600.000000pt" viewBox="0 0 506.000000 600.000000"
 preserveAspectRatio="xMidYMid meet">
<g transform="translate(0.000000,600.000000) scale(0.100000,-0.100000)"
fill="#000000" stroke="none">
<path d="M2269 5370 c-79 -24 -139 -106 -139 -191 0 -106 79 -182 188 -180
l53 1 -23 -43 c-29 -53 -86 -131 -130 -179 -19 -20 -50 -65 -69 -100 -31 -58
-34 -70 -34 -153 0 -49 4 -104 8 -120 8 -29 6 -32 -35 -54 -24 -14 -45 -27
-48 -30 -3 -3 -24 -19 -48 -35 -53 -36 -177 -157 -217 -211 -17 -22 -32 -42
-35 -45 -13 -13 -60 -79 -60 -85 0 -4 -13 -26 -30 -50 -36 -52 -135 -250 -144
-286 -3 -15 0 -33 7 -44 18 -23 39 -10 92 58 102 130 293 295 405 353 118 60
123 62 160 67 19 3 56 9 81 12 62 9 173 -9 240 -39 133 -59 236 -207 260 -374
10 -72 8 -216 -4 -262 -2 -8 -7 -28 -11 -45 -13 -53 -48 -134 -62 -146 -11 -9
-16 -6 -23 14 -6 14 -33 63 -62 109 -29 46 -70 115 -92 153 -46 82 -65 105
-85 105 -8 0 -61 -28 -116 -62 -329 -201 -450 -394 -396 -628 16 -71 110 -266
154 -320 7 -8 25 -37 41 -64 33 -59 79 -108 90 -98 5 4 -3 -13 -17 -38 -14
-25 -38 -67 -53 -95 -37 -68 -52 -93 -81 -140 -13 -22 -33 -56 -44 -75 -11
-19 -32 -53 -45 -75 -14 -22 -38 -62 -53 -89 -50 -90 -61 -97 -152 -95 -97 2
-147 24 -175 77 -31 57 -85 52 -85 -7 0 -44 -48 -192 -75 -233 -22 -33 -66
-72 -147 -129 -20 -14 -21 -19 -11 -42 l12 -25 222 -1 c121 0 223 -2 226 -5 2
-2 -4 -17 -14 -32 -24 -37 -28 -201 -8 -297 13 -59 54 -162 78 -192 4 -5 21
-30 37 -55 47 -73 151 -173 198 -191 12 -5 22 -13 22 -18 0 -6 18 -16 40 -22
22 -7 40 -15 40 -19 0 -4 17 -12 38 -18 20 -6 64 -18 97 -27 69 -19 98 -14
111 17 6 13 9 81 7 152 -3 144 -9 160 -65 164 -32 3 -114 24 -172 45 -48 17
-147 88 -201 143 -64 64 -118 154 -151 252 -14 42 -30 82 -35 88 -7 8 -2 13
16 16 30 6 35 2 35 -28 0 -13 13 -57 29 -99 76 -197 257 -345 467 -381 70 -12
225 -7 250 9 6 3 22 8 37 11 28 5 138 60 171 86 130 101 206 219 240 373 l6
27 198 0 c108 1 336 1 506 1 247 0 312 3 322 14 21 20 17 41 -11 62 -13 10
-44 33 -68 51 -63 46 -122 164 -141 283 -4 20 -15 44 -25 53 -18 16 -20 16
-40 -5 -11 -12 -23 -30 -26 -38 -12 -36 -67 -58 -150 -60 l-81 -2 -39 65 c-70
117 -84 140 -107 184 -12 23 -26 42 -30 42 -4 0 -8 5 -8 10 0 10 -105 191
-165 286 -18 27 -42 68 -54 90 -12 21 -27 48 -34 59 -43 69 -77 126 -77 130 0
10 -65 101 -82 115 -18 15 -17 19 37 99 159 237 244 516 231 756 -13 237 -84
404 -239 559 -83 83 -135 118 -297 199 -125 63 -157 86 -195 143 -19 29 -25
49 -25 94 0 65 11 99 68 220 68 145 92 260 72 354 -26 124 -145 208 -251 176z
m129 -44 c65 -34 102 -108 102 -205 0 -74 -19 -138 -88 -291 -48 -106 -57
-136 -60 -196 -7 -122 44 -180 243 -281 72 -36 157 -85 190 -108 347 -246 423
-727 191 -1202 -20 -40 -101 -169 -181 -287 -164 -243 -193 -291 -348 -571
-60 -110 -143 -257 -184 -327 -123 -212 -156 -289 -155 -358 1 -96 55 -175
151 -222 56 -28 175 -30 233 -4 96 42 152 124 153 226 0 56 -6 77 -42 153 -23
48 -76 146 -118 217 -41 71 -75 133 -75 138 0 5 25 55 56 113 83 152 105 191
109 187 10 -10 193 -323 250 -425 l68 -123 99 0 c55 0 98 3 96 8 -1 4 -96 163
-210 353 -115 191 -208 350 -208 353 0 7 91 148 147 228 l41 58 71 -123 c39
-67 172 -291 294 -497 l223 -375 95 1 c115 0 151 17 184 82 l22 43 16 -74 c27
-121 54 -182 109 -243 28 -30 68 -64 90 -75 21 -11 38 -24 38 -29 0 -6 -188
-10 -523 -10 l-522 0 -12 -61 c-39 -208 -218 -389 -433 -440 -75 -17 -202 -15
-279 5 -220 57 -391 243 -427 462 l-6 39 -269 -3 c-157 -1 -269 1 -269 6 0 5
14 15 31 23 48 19 132 108 162 169 14 30 34 97 44 147 17 86 33 122 33 72 0
-31 69 -95 115 -108 22 -6 77 -11 121 -11 l82 0 115 193 c63 105 172 293 242
417 149 264 200 346 354 574 138 205 197 323 216 432 66 368 -106 661 -413
706 -151 22 -321 -34 -487 -160 -87 -65 -265 -240 -316 -310 -17 -24 -33 -41
-36 -38 -7 7 75 181 129 272 70 120 162 240 246 322 79 76 206 168 248 178 28
7 29 10 9 57 -9 22 -15 68 -15 115 0 68 4 87 30 138 16 32 64 100 105 149 75
89 135 193 135 234 0 21 -1 21 -32 5 -22 -11 -48 -15 -85 -12 -44 4 -60 11
-87 37 -78 76 -60 205 35 253 41 22 120 23 157 4z m130 -1967 c62 -102 112
-191 112 -197 0 -14 -179 -282 -188 -282 -4 1 -43 62 -87 136 l-80 136 -37
-42 c-70 -79 -62 -148 37 -314 l56 -94 -77 -133 c-42 -74 -80 -138 -84 -142
-6 -7 -153 219 -193 299 -30 59 -66 165 -73 213 -8 62 11 151 48 226 46 91
169 206 325 303 70 44 128 79 129 78 0 0 51 -85 112 -187z m-179 -366 c36 -59
75 -117 87 -128 l22 -21 -40 -59 c-22 -33 -43 -61 -47 -63 -8 -3 -59 75 -102
156 -39 76 -45 150 -15 195 10 15 21 27 25 27 3 0 35 -48 70 -107z m315 -566
c10 -17 30 -52 44 -77 13 -25 30 -52 37 -60 7 -8 41 -66 76 -128 35 -62 72
-125 81 -140 10 -15 22 -36 28 -47 13 -27 34 -59 41 -65 11 -10 59 -97 59
-108 0 -8 -22 -12 -63 -12 -51 0 -64 3 -72 19 -6 10 -22 43 -38 72 -15 30 -36
68 -47 84 -11 17 -24 39 -29 50 -10 21 -75 133 -88 151 -10 13 -31 49 -57 98
-12 21 -32 46 -46 54 -14 9 -27 17 -29 18 -2 2 6 15 18 30 11 15 21 31 21 36
0 11 32 57 40 58 3 0 13 -15 24 -33z m-244 -499 c19 -34 55 -96 80 -137 137
-229 152 -354 53 -441 -43 -39 -70 -49 -152 -61 -140 -20 -256 71 -267 210 -3
43 3 61 46 147 28 55 63 122 80 149 16 28 42 73 56 100 35 65 55 95 63 95 3 0
22 -28 41 -62z m-690 -581 c49 -237 293 -455 544 -486 l51 -6 3 -143 3 -143
-38 6 c-89 14 -209 60 -279 107 -144 96 -264 260 -299 409 -19 84 -19 309 1
309 1 0 8 -24 14 -53z"/>
<path d="M3013 1388 c-7 -13 -17 -41 -23 -63 -67 -223 -284 -410 -505 -432
-80 -8 -84 -17 -88 -172 -3 -117 -1 -136 15 -156 10 -13 24 -22 31 -20 7 2 32
6 57 8 25 3 62 12 84 21 21 9 47 16 57 16 11 0 19 4 19 9 0 5 15 15 33 22 17
7 38 19 45 26 8 7 23 18 34 24 49 26 142 116 187 182 42 61 87 161 106 235 19
73 21 251 3 289 -17 35 -41 40 -55 11z m41 -120 c0 -125 -16 -204 -63 -303
-95 -203 -305 -357 -529 -389 l-43 -6 3 142 3 143 63 8 c245 30 485 246 534
481 18 85 32 52 32 -76z"/>
</g>
</svg>
